<?xml version="1.0" encoding="utf-8"?><!-- Uploaded to: SVG Repo, www.svgrepo.com, Generator: SVG Repo Mixer Tools -->
<svg fill="#000000" width="800px" height="800px" viewBox="0 0 24 24" id="paper-cup-2" data-name="Flat Line" xmlns="http://www.w3.org/2000/svg" class="icon flat-line"><path id="secondary" d="M17.69,10,18,5H6l.31,5Zm-11,6,.25,4.06a1,1,0,0,0,1,.94h8.12a1,1,0,0,0,1-.94L17.31,16Z" style="fill: rgb(44, 169, 188); stroke-width: 2;"></path><path id="primary" d="M5.81,10l.38,6H17.81l.38-6Zm11.88,0L18,5H6l.31,5Zm-11,6,.25,4.06a1,1,0,0,0,1,.94h8.12a1,1,0,0,0,1-.94L17.31,16ZM5,5H19M17,3H7L6,5H18Z" style="fill: none; stroke: rgb(0, 0, 0); stroke-linecap: round; stroke-linejoin: round; stroke-width: 2;"></path></svg>